<svg width="312" height="115" viewBox="0 0 312 115" fill="none" xmlns="http://www.w3.org/2000/svg">
<path d="M46.2804 27.9494L53.6647 27.1936C56.091 26.9452 57.9785 27.1662 59.3271 27.8564C60.6803 28.5462 61.4425 29.7272 61.6137 31.3993C61.7877 33.0996 61.2861 34.4407 60.1086 35.4227C58.9359 36.4041 57.1223 37.0205 54.6679 37.2717L47.3117 38.0247L46.2804 27.9494ZM53.2917 34.7857C53.8725 34.7263 54.3578 34.5891 54.7476 34.374C55.1374 34.159 55.421 33.8555 55.5986 33.4634C55.7804 33.0661 55.8416 32.5771 55.7821 31.9963C55.7236 31.4248 55.5734 30.974 55.3313 30.6438C55.0893 30.3136 54.7683 30.0909 54.3684 29.9756C53.968 29.8557 53.4914 29.824 52.9387 29.8806L52.0183 29.9748L52.5189 34.8649L53.2917 34.7857Z" fill="#FF87F2"/>
<path d="M65.096 26.0235L72.944 25.2202L78.2261 34.8603L72.3031 35.4666L71.423 33.5262L70.7177 31.8377L68.5876 27.0505L69.5994 26.9469L68.4863 32.0945L68.153 33.8325L67.68 35.9398L61.8977 36.5317L65.096 26.0235ZM65.2153 31.9749L73.8151 31.0947L74.0927 33.8067L65.4929 34.687L65.2153 31.9749Z" fill="#FF87F2"/>
<path d="M85.2107 34.5003C83.8149 34.6432 82.5722 34.6403 81.4825 34.4915C80.3929 34.3427 79.5203 34.0486 78.8648 33.6093C78.2092 33.17 77.8263 32.5962 77.7159 31.8881L83.681 31.2775C83.7334 31.6508 83.9088 31.931 84.2072 32.1182C84.5056 32.3054 84.8867 32.3752 85.3504 32.3278C85.6736 32.2947 85.9393 32.2083 86.1474 32.0687C86.3556 31.9291 86.4472 31.7375 86.4223 31.4939C86.406 31.3346 86.3408 31.2064 86.2267 31.1092C86.1126 31.012 85.9513 30.9386 85.7427 30.889C85.5383 30.8342 85.269 30.7931 84.9349 30.7658L82.4073 30.5559C81.5193 30.4812 80.7359 30.3649 80.0571 30.2072C79.3784 30.0495 78.7977 29.7871 78.3152 29.42C77.8374 29.0524 77.5664 28.5548 77.5022 27.9271C77.4197 27.1215 77.668 26.4263 78.2472 25.8417C78.8305 25.2518 79.6275 24.7845 80.6382 24.4397C81.6536 24.0944 82.7889 23.8574 84.0443 23.729C85.2246 23.6081 86.3465 23.6093 87.4098 23.7323C88.4727 23.8507 89.3684 24.1164 90.0969 24.5293C90.8302 24.9418 91.2808 25.5062 91.4488 26.2226L85.7156 26.8095C85.6388 26.4292 85.4677 26.1675 85.2022 26.0243C84.9413 25.8806 84.6236 25.8279 84.2488 25.8663C83.9116 25.9008 83.6375 25.9975 83.4266 26.1563C83.2203 26.3147 83.1292 26.511 83.1532 26.7452C83.1676 26.8857 83.2215 26.9962 83.3149 27.0765C83.4078 27.1522 83.5223 27.2068 83.6582 27.2402C83.7984 27.2684 83.9736 27.2931 84.1841 27.3141L87.8392 27.65L87.9039 27.6575C88.7066 27.7316 89.4038 27.8614 89.9955 28.0469C90.5867 28.2278 91.0718 28.5047 91.4508 28.8777C91.8293 29.246 92.0492 29.7299 92.1106 30.3295C92.1916 31.1211 91.9397 31.8047 91.355 32.3805C90.7749 32.9558 89.9537 33.4185 88.8915 33.7686C87.8288 34.114 86.6019 34.3579 85.2107 34.5003Z" fill="#FF87F2"/>
<path d="M96.3195 22.8274L101.8 22.2665L102.831 32.3417L97.3508 32.9027L96.3195 22.8274Z" fill="#FF87F2"/>
<path d="M111.151 31.8451C109.755 31.988 108.512 31.9851 107.422 31.8363C106.333 31.6875 105.46 31.3934 104.805 30.9541C104.149 30.5148 103.766 29.941 103.656 29.2329L109.621 28.6223C109.673 28.9956 109.849 29.2758 110.147 29.463C110.446 29.6502 110.827 29.72 111.29 29.6726C111.614 29.6395 111.879 29.5531 112.087 29.4135C112.296 29.2738 112.387 29.0822 112.362 28.8387C112.346 28.6794 112.281 28.5512 112.167 28.454C112.053 28.3568 111.891 28.2834 111.683 28.2338C111.478 28.179 111.209 28.1379 110.875 28.1106L108.347 27.9007C107.459 27.826 106.676 27.7097 105.997 27.552C105.318 27.3943 104.738 27.1319 104.255 26.7648C103.777 26.3972 103.506 25.8995 103.442 25.2719C103.36 24.4662 103.608 23.7711 104.187 23.1864C104.77 22.5966 105.567 22.1293 106.578 21.7845C107.594 21.4391 108.729 21.2022 109.984 21.0737C111.165 20.9529 112.286 20.954 113.35 21.0771C114.413 21.1955 115.308 21.4612 116.037 21.8741C116.77 22.2866 117.221 22.851 117.389 23.5674L111.656 24.1543C111.579 23.774 111.408 23.5123 111.142 23.3691C110.881 23.2254 110.564 23.1727 110.189 23.2111C109.852 23.2456 109.577 23.3423 109.367 23.5011C109.16 23.6595 109.069 23.8558 109.093 24.09C109.107 24.2305 109.161 24.341 109.255 24.4213C109.348 24.497 109.462 24.5515 109.598 24.585C109.738 24.6132 109.914 24.6379 110.124 24.6589L113.779 24.9947L113.844 25.0023C114.647 25.0763 115.344 25.2061 115.935 25.3917C116.527 25.5726 117.012 25.8495 117.391 26.2225C117.769 26.5908 117.989 27.0747 118.051 27.6743C118.132 28.4659 117.88 29.1495 117.295 29.7253C116.715 30.3006 115.894 30.7633 114.831 31.1134C113.769 31.4588 112.542 31.7027 111.151 31.8451Z" fill="#FF87F2"/>
<path d="M121.859 23.1951L117.854 23.605L117.552 20.6541L131.042 19.2733L131.344 22.2242L127.339 22.6341L128.068 29.7585L122.588 30.3194L121.859 23.1951Z" fill="#FF87F2"/>
<path d="M135.454 18.8216L142.839 18.0657C145.265 17.8174 147.152 18.0383 148.501 18.7286C149.854 19.4183 150.616 20.5993 150.788 22.2715C150.962 23.9718 150.46 25.3129 149.282 26.2949C148.11 27.2763 146.296 27.8927 143.842 28.1439L136.486 28.8969L135.454 18.8216ZM142.466 25.6579C143.046 25.5985 143.532 25.4612 143.921 25.2462C144.311 25.0312 144.595 24.7276 144.772 24.3355C144.954 23.9383 145.015 23.4492 144.956 22.8684C144.897 22.297 144.747 21.8462 144.505 21.516C144.263 21.1857 143.942 20.963 143.542 20.8478C143.142 20.7278 142.665 20.6961 142.113 20.7527L141.192 20.8469L141.693 25.737L142.466 25.6579Z" fill="#FF87F2"/>
<path d="M151.53 17.1761L164.148 15.8845L164.404 18.3787L157.265 19.1094L157.384 20.2687L163.258 19.6674L163.522 22.253L157.649 22.8542L157.779 24.1259L164.917 23.3953L165.18 25.9597L152.561 27.2514L151.53 17.1761Z" fill="#FF87F2"/>
<path d="M165.525 15.7435L174.427 14.8323C175.575 14.7148 176.537 14.7253 177.313 14.8635C178.094 15.0013 178.691 15.2621 179.104 15.6457C179.517 16.0294 179.756 16.5304 179.819 17.1487C179.884 17.7904 179.76 18.3332 179.446 18.7772C179.132 19.2211 178.689 19.5717 178.119 19.8288C177.554 20.0855 176.9 20.266 176.159 20.3703L176.703 20.1371C177.501 20.1217 178.162 20.1723 178.685 20.2892C179.207 20.4013 179.629 20.6304 179.948 20.9764C180.267 21.3176 180.46 21.8138 180.526 22.4649L180.721 24.3689L175.241 24.9299L175.05 23.068C175.011 22.6792 174.902 22.385 174.726 22.1854C174.549 21.981 174.296 21.8507 173.969 21.7943C173.641 21.7379 173.213 21.7368 172.683 21.791L171.693 21.8924L172.037 25.2578L166.557 25.8188L165.525 15.7435ZM172.911 19.439C173.431 19.3858 173.827 19.2576 174.1 19.0546C174.373 18.8516 174.489 18.558 174.45 18.1739C174.413 17.8086 174.243 17.5656 173.942 17.4449C173.645 17.3191 173.23 17.2835 172.696 17.3382L171.242 17.4871L171.457 19.5878L172.911 19.439Z" fill="#FF87F2"/>
<path d="M192.54 23.5141C191.144 23.657 189.901 23.6541 188.811 23.5053C187.722 23.3565 186.849 23.0624 186.194 22.6231C185.538 22.1838 185.155 21.61 185.045 20.9019L191.01 20.2913C191.062 20.6646 191.238 20.9448 191.536 21.132C191.835 21.3192 192.216 21.389 192.679 21.3416C193.003 21.3085 193.268 21.2221 193.476 21.0825C193.685 20.9429 193.776 20.7513 193.751 20.5077C193.735 20.3484 193.67 20.2202 193.556 20.123C193.442 20.0258 193.28 19.9524 193.072 19.9028C192.867 19.848 192.598 19.8069 192.264 19.7796L189.736 19.5697C188.848 19.495 188.065 19.3787 187.386 19.221C186.707 19.0633 186.127 18.8009 185.644 18.4338C185.166 18.0662 184.895 17.5686 184.831 16.9409C184.749 16.1353 184.997 15.4401 185.576 14.8555C186.159 14.2657 186.956 13.7983 187.967 13.4535C188.983 13.1082 190.118 12.8712 191.373 12.7428C192.554 12.6219 193.675 12.6231 194.739 12.7461C195.802 12.8645 196.697 13.1302 197.426 13.5431C198.159 13.9556 198.61 14.52 198.778 15.2364L193.045 15.8233C192.968 15.443 192.797 15.1813 192.531 15.0381C192.27 14.8944 191.953 14.8417 191.578 14.8801C191.241 14.9146 190.966 15.0113 190.756 15.1701C190.549 15.3285 190.458 15.5248 190.482 15.759C190.497 15.8995 190.55 16.01 190.644 16.0903C190.737 16.166 190.851 16.2206 190.987 16.254C191.127 16.2822 191.303 16.3069 191.513 16.3279L195.168 16.6638L195.233 16.6713C196.036 16.7454 196.733 16.8752 197.325 17.0607C197.916 17.2416 198.401 17.5185 198.78 17.8915C199.158 18.2598 199.378 18.7437 199.44 19.3433C199.521 20.1349 199.269 20.8185 198.684 21.3943C198.104 21.9696 197.283 22.4323 196.22 22.7824C195.158 23.1278 193.931 23.3718 192.54 23.5141Z" fill="#FF87F2"/>
<path d="M202.791 11.929L210.639 11.1257L215.921 20.7658L209.998 21.3721L209.118 19.4317L208.413 17.7432L206.283 12.956L207.295 12.8524L206.182 18L205.848 19.738L205.375 21.8453L199.593 22.4372L202.791 11.929ZM202.911 17.8804L211.51 17.0002L211.788 19.7122L203.188 20.5925L202.911 17.8804Z" fill="#FF87F2"/>
<path d="M223.152 20.3807C220.749 20.6266 218.938 20.4617 217.72 19.886C216.501 19.3055 215.824 18.3572 215.689 17.041L215.038 10.6755L220.518 10.1145L221.134 16.1358C221.183 16.6135 221.354 16.9629 221.646 17.1838C221.943 17.3996 222.344 17.4815 222.85 17.4298C223.36 17.3775 223.737 17.2159 223.979 16.945C224.22 16.6694 224.317 16.2928 224.268 15.815L223.651 9.79374L229.132 9.23278L229.783 15.5983C229.918 16.9145 229.447 17.9803 228.371 18.7957C227.295 19.6064 225.555 20.1347 223.152 20.3807Z" fill="#FF87F2"/>
<path d="M230.656 9.07671L243.275 7.78507L243.53 10.2793L236.392 11.01L236.511 12.1693L242.384 11.568L242.649 14.1536L236.775 14.7548L236.905 16.0265L244.044 15.2958L244.306 17.8603L231.688 19.152L230.656 9.07671Z" fill="#FF87F2"/>
<path d="M244.652 7.64411L253.554 6.7329C254.702 6.61544 255.664 6.62584 256.44 6.76411C257.221 6.90191 257.818 7.16264 258.231 7.54633C258.644 7.93001 258.882 8.43099 258.945 9.04928C259.011 9.69099 258.887 10.2338 258.573 10.6778C258.258 11.1217 257.816 11.4722 257.246 11.7294C256.681 11.986 256.027 12.1665 255.285 12.2709L255.829 12.0377C256.628 12.0222 257.288 12.0729 257.812 12.1898C258.334 12.3019 258.755 12.531 259.075 12.8769C259.393 13.2182 259.586 13.7144 259.653 14.3655L259.848 16.2695L254.368 16.8305L254.177 14.9686C254.137 14.5798 254.029 14.2856 253.852 14.086C253.675 13.8816 253.423 13.7513 253.095 13.6949C252.768 13.6385 252.339 13.6374 251.81 13.6916L250.819 13.793L251.164 17.1584L245.683 17.7194L244.652 7.64411ZM252.038 11.3396C252.558 11.2863 252.954 11.1582 253.227 10.9552C253.499 10.7522 253.616 10.4586 253.577 10.0745C253.539 9.70916 253.37 9.46616 253.069 9.34552C252.772 9.21972 252.357 9.18414 251.823 9.2388L250.368 9.38767L250.583 11.4884L252.038 11.3396Z" fill="#FF87F2"/>
<path d="M263.601 8.68632L259.596 9.09625L259.294 6.14534L272.784 4.76451L273.086 7.71542L269.081 8.12536L269.811 15.2497L264.33 15.8107L263.601 8.68632Z" fill="#FF87F2"/>
<path d="M273.852 4.65519L286.471 3.36354L286.726 5.85777L279.588 6.58846L279.706 7.74775L285.58 7.14651L285.845 9.73207L279.971 10.3333L280.101 11.605L287.24 10.8743L287.502 13.4388L274.883 14.7305L273.852 4.65519Z" fill="#FF87F2"/>
<path d="M287.848 3.22259L293.328 2.66163L294.359 12.7369L288.879 13.2979L287.848 3.22259Z" fill="#FF87F2"/>
<path d="M303.719 12.1338C302.023 12.3074 300.549 12.2595 299.295 11.9903C298.046 11.7158 297.059 11.2229 296.333 10.5115C295.611 9.79968 295.193 8.88167 295.078 7.75752C294.958 6.58183 295.176 5.54428 295.732 4.64484C296.293 3.74024 297.155 3.01063 298.319 2.456C299.488 1.89621 300.908 1.53073 302.581 1.35957C304.094 1.2047 305.424 1.23416 306.572 1.44793C307.726 1.66122 308.648 2.02591 309.34 2.542C310.032 3.05808 310.472 3.68744 310.662 4.43005L304.774 5.03272C304.69 4.57753 304.48 4.23694 304.144 4.01097C303.808 3.78031 303.392 3.69039 302.895 3.74121C302.141 3.8184 301.592 4.1207 301.249 4.64811C300.905 5.17084 300.783 5.91934 300.882 6.89361C300.952 7.57279 301.113 8.129 301.365 8.56226C301.618 8.99551 301.967 9.30531 302.412 9.49168C302.857 9.67336 303.397 9.7316 304.034 9.66639C304.381 9.63091 304.713 9.56852 305.03 9.47923C305.352 9.38478 305.619 9.26515 305.831 9.12036L305.791 10.4592L305.569 8.29522L302.59 8.60015L302.353 6.28158L310.777 5.41928L311.255 10.0845C310.789 10.3452 310.15 10.6165 309.336 10.8986C308.527 11.1755 307.627 11.4262 306.637 11.6505C305.647 11.8749 304.674 12.036 303.719 12.1338Z" fill="#FF87F2"/>
<path d="M0.695086 105.76C0.286545 106.481 0.539587 107.396 1.26027 107.805L13.0045 114.462C13.7252 114.871 14.6406 114.618 15.0491 113.897C15.4577 113.177 15.2046 112.261 14.484 111.853L4.04464 105.935L9.96247 95.4955C10.371 94.7748 10.118 93.8594 9.39729 93.4509C8.6766 93.0423 7.76118 93.2954 7.35264 94.016L0.695086 105.76ZM65.0043 49.8864C64.0615 62.3005 50.3175 91.5877 1.60035 105.054L2.39965 107.946C52.0825 94.2123 66.9385 64.0329 67.9957 50.1136L65.0043 49.8864Z" fill="#FF87F2"/>
</svg>
